# xmcd
#
# Track frame offsets: 
#        150
#        13126
#        26219
#        40059
#        54794
#        73033
#        85091
#        101741
#        114244
#        128116
#        142524
#        162069
#
# Disc length: 2372 seconds
#
# Revision: 1
# Processed by: cddbd v1.5.2PL0 Copyright (c) Steve Scherf et al.
# Submitted via: ExactAudioCopy v0.99pb5
#
DISCID=8e09420c
DTITLE=Daniël Lohues - Hout Moet
DYEAR=2011
DGENRE=Pop
TTITLE0=Van Leege Naor Hooge
TTITLE1=Herinnerings
TTITLE2=Holt Veur Op 't Vuur
TTITLE3=Bij De Hemel In De Rij
TTITLE4=Aordig Doen Tegen Mensen Die Niet Aordig Doen
TTITLE5=Prachtig Mooie Dag
TTITLE6=Tesknie Za Domem
TTITLE7=Wie Wet Der Toevallig Waor 't Sleuteltie Lig?
TTITLE8=Gieniene Mag Slecht Peaoten Over Ons (Behalve Wij)
TTITLE9=Komp Der An
TTITLE10=Zo Weijt Alles Ooit Veurbij
TTITLE11=As Iederien Nou Zo Was Zoas Wij Mussen Wezen
EXTD=
EXTT0=
EXTT1=
EXTT2=
EXTT3=
EXTT4=
EXTT5=
EXTT6=
EXTT7=
EXTT8=
EXTT9=
EXTT10=
EXTT11=
PLAYORDER=
